<mxfile host="app.diagrams.net" modified="2024-02-02T04:01:54.775Z" agent="Mozilla/5.0 (X11; Linux x86_64) AppleWebKit/537.36 (KHTML, like Gecko) Chrome/116.0.0.0 Safari/537.36" version="23.1.1" etag="_9g_84Nr3ZIvbb_PlUOH" type="github">
  <diagram name="Halaman-1" id="GxBD9wIj39qsPaLbqRYk">
    <mxGraphModel>
      <root>
        <mxCell id="0" />
        <mxCell id="1" parent="0" />
      </root>
    </mxGraphModel>
  </diagram>
</mxfile>
